<svg width="720" height="520" viewBox="0 0 720 520" fill="none" xmlns="http://www.w3.org/2000/svg">
  <rect width="720" height="520" rx="32" fill="#EAF2FF"/>
  <circle cx="600" cy="96" r="48" fill="#00B894" fill-opacity="0.18"/>
  <circle cx="106" cy="112" r="60" fill="#0D6EFD" fill-opacity="0.14"/>
  <rect x="70" y="72" width="580" height="376" rx="28" fill="white"/>
  <rect x="70" y="72" width="580" height="76" rx="28" fill="#111827"/>
  <circle cx="116" cy="110" r="10" fill="#FF6B6B"/>
  <circle cx="146" cy="110" r="10" fill="#FFD166"/>
  <circle cx="176" cy="110" r="10" fill="#06D6A0"/>
  <rect x="114" y="194" width="196" height="18" rx="9" fill="#D7E5FF"/>
  <rect x="114" y="234" width="132" height="18" rx="9" fill="#B9D0FF"/>
  <rect x="114" y="274" width="176" height="18" rx="9" fill="#D7E5FF"/>
  <rect x="114" y="314" width="146" height="18" rx="9" fill="#B9D0FF"/>
  <rect x="372" y="188" width="164" height="170" rx="24" fill="#0D6EFD"/>
  <rect x="400" y="220" width="108" height="16" rx="8" fill="white" fill-opacity="0.9"/>
  <rect x="400" y="254" width="84" height="14" rx="7" fill="white" fill-opacity="0.72"/>
  <rect x="400" y="286" width="112" height="14" rx="7" fill="white" fill-opacity="0.6"/>
  <rect x="400" y="326" width="72" height="18" rx="9" fill="#00D6A5"/>
  <path d="M568 396C568 422.51 546.51 444 520 444C493.49 444 472 422.51 472 396C472 369.49 493.49 348 520 348C546.51 348 568 369.49 568 396Z" fill="#00B894" fill-opacity="0.2"/>
  <path d="M202 402L236 368L270 402" stroke="#0D6EFD" stroke-width="18" stroke-linecap="round" stroke-linejoin="round"/>
  <path d="M314 368L348 402L314 436" stroke="#00B894" stroke-width="18" stroke-linecap="round" stroke-linejoin="round"/>
</svg>
